<svg width="23" height="19" viewBox="0 0 23 19" fill="none" xmlns="http://www.w3.org/2000/svg">
<path d="M10.0625 19C10.0625 19 8.625 19 8.625 17.4167C8.625 15.8333 10.0625 11.0833 15.8125 11.0833C21.5625 11.0833 23 15.8333 23 17.4167C23 19 21.5625 19 21.5625 19H10.0625ZM15.8125 9.5C16.9562 9.5 18.0531 8.99955 18.8619 8.10876C19.6706 7.21796 20.125 6.00978 20.125 4.75C20.125 3.49022 19.6706 2.28204 18.8619 1.39124C18.0531 0.500445 16.9562 0 15.8125 0C14.6688 0 13.5719 0.500445 12.7631 1.39124C11.9544 2.28204 11.5 3.49022 11.5 4.75C11.5 6.00978 11.9544 7.21796 12.7631 8.10876C13.5719 8.99955 14.6688 9.5 15.8125 9.5Z" fill="#87329E"/>
<path fill-rule="evenodd" clip-rule="evenodd" d="M7.498 19.0004C7.2849 18.5061 7.17862 17.9641 7.1875 17.417C7.1875 15.2716 8.165 13.0629 9.9705 11.527C9.06932 11.2212 8.13043 11.0716 7.1875 11.0837C1.4375 11.0837 0 15.8337 0 17.417C0 19.0004 1.4375 19.0004 1.4375 19.0004H7.498Z" fill="#87329E"/>
<path d="M6.46875 9.50016C7.42187 9.50016 8.33596 9.08313 9.00991 8.34079C9.68387 7.59846 10.0625 6.59164 10.0625 5.54183C10.0625 4.49201 9.68387 3.4852 9.00991 2.74287C8.33596 2.00053 7.42187 1.5835 6.46875 1.5835C5.51563 1.5835 4.60154 2.00053 3.92759 2.74287C3.25363 3.4852 2.875 4.49201 2.875 5.54183C2.875 6.59164 3.25363 7.59846 3.92759 8.34079C4.60154 9.08313 5.51563 9.50016 6.46875 9.50016Z" fill="#87329E"/>
</svg>
