<svg width="18" height="26" viewBox="0 0 18 26" fill="none" xmlns="http://www.w3.org/2000/svg">
<path d="M15.5556 0H1.94444C1.42875 0 0.934169 0.189809 0.569515 0.527673C0.204861 0.865536 0 1.32378 0 1.80159V23.4206C0 23.8984 0.204861 24.3567 0.569515 24.6945C0.934169 25.0324 1.42875 25.2222 1.94444 25.2222H15.5556C16.0713 25.2222 16.5658 25.0324 16.9305 24.6945C17.2951 24.3567 17.5 23.8984 17.5 23.4206V1.80159C17.5 1.32378 17.2951 0.865536 16.9305 0.527673C16.5658 0.189809 16.0713 0 15.5556 0ZM9.72222 23.4206H7.77778V21.619H9.72222V23.4206ZM1.94444 19.8175V1.80159H15.5556V19.8175H1.94444Z" fill="#87329E"/>
</svg>
