<svg width="23" height="23" viewBox="0 0 23 23" fill="none" xmlns="http://www.w3.org/2000/svg">
<path fill-rule="evenodd" clip-rule="evenodd" d="M23 11.5C23 14.55 21.7884 17.4751 19.6317 19.6317C17.4751 21.7884 14.55 23 11.5 23C8.45001 23 5.52494 21.7884 3.36827 19.6317C1.2116 17.4751 0 14.55 0 11.5C0 8.45001 1.2116 5.52494 3.36827 3.36827C5.52494 1.2116 8.45001 0 11.5 0C14.55 0 17.4751 1.2116 19.6317 3.36827C21.7884 5.52494 23 8.45001 23 11.5ZM12.9375 5.75C12.9375 6.13125 12.786 6.49688 12.5165 6.76647C12.2469 7.03605 11.8812 7.1875 11.5 7.1875C11.1188 7.1875 10.7531 7.03605 10.4835 6.76647C10.214 6.49688 10.0625 6.13125 10.0625 5.75C10.0625 5.36875 10.214 5.00312 10.4835 4.73353C10.7531 4.46395 11.1188 4.3125 11.5 4.3125C11.8812 4.3125 12.2469 4.46395 12.5165 4.73353C12.786 5.00312 12.9375 5.36875 12.9375 5.75ZM10.0625 10.0625C9.68125 10.0625 9.31562 10.214 9.04603 10.4835C8.77645 10.7531 8.625 11.1188 8.625 11.5C8.625 11.8812 8.77645 12.2469 9.04603 12.5165C9.31562 12.786 9.68125 12.9375 10.0625 12.9375V17.25C10.0625 17.6312 10.214 17.9969 10.4835 18.2665C10.7531 18.536 11.1188 18.6875 11.5 18.6875H12.9375C13.3187 18.6875 13.6844 18.536 13.954 18.2665C14.2235 17.9969 14.375 17.6312 14.375 17.25C14.375 16.8688 14.2235 16.5031 13.954 16.2335C13.6844 15.964 13.3187 15.8125 12.9375 15.8125V11.5C12.9375 11.1188 12.786 10.7531 12.5165 10.4835C12.2469 10.214 11.8812 10.0625 11.5 10.0625H10.0625Z" fill="#87329E"/>
</svg>
