<svg width="20" height="24" viewBox="0 0 20 24" fill="none" xmlns="http://www.w3.org/2000/svg">
<path d="M19.7329 4.52422C19.6438 4.42246 19.5346 4.34018 19.4123 4.28253C19.2899 4.22489 19.1569 4.19312 19.0217 4.18922C16.9211 4.1343 14.263 1.88811 12.5056 1.00667C11.42 0.463883 10.7033 0.105995 10.1651 0.0117173C10.0558 -0.00420679 9.94481 -0.00389835 9.83562 0.0126327C9.29741 0.10691 8.58072 0.464799 7.49607 1.00758C5.73867 1.88811 3.08059 4.1343 0.97994 4.18922C0.84463 4.19332 0.711604 4.22517 0.589109 4.2828C0.466613 4.34043 0.357259 4.4226 0.267825 4.52422C0.0824488 4.73395 -0.0131959 5.00807 0.00146813 5.2876C0.452719 14.4618 3.74328 20.1395 9.51709 23.4392C9.6672 23.5243 9.83379 23.5683 9.99946 23.5683C10.1651 23.5683 10.3317 23.5243 10.4827 23.4392C16.2566 20.1395 19.5462 14.4618 19.9984 5.2876C20.0139 5.00811 19.9185 4.73379 19.7329 4.52422ZM15.1417 8.1324L10.2695 15.3222C10.0947 15.5803 9.82006 15.7515 9.54821 15.7515C9.27544 15.7515 8.97248 15.6023 8.78117 15.411L5.34691 11.9758C5.23479 11.8633 5.17183 11.7109 5.17183 11.552C5.17183 11.3932 5.23479 11.2408 5.34691 11.1282L6.19541 10.2779C6.30818 10.1662 6.46048 10.1036 6.6192 10.1036C6.77791 10.1036 6.93021 10.1662 7.04299 10.2779L9.27636 12.5113L13.1564 6.78414C13.2462 6.65308 13.3841 6.56287 13.5402 6.5332C13.6963 6.50353 13.8577 6.53682 13.9893 6.62579L14.9824 7.29946C15.1136 7.38909 15.204 7.52701 15.2339 7.68308C15.2637 7.83915 15.2306 8.00068 15.1417 8.1324Z" fill="#87329E"/>
</svg>
