<svg width="28" height="28" viewBox="0 0 28 28" fill="none" xmlns="http://www.w3.org/2000/svg">
<path d="M23.8976 3.5H19.2402L19.8236 9.33333C19.8236 9.33333 20.9902 10.5 22.7402 10.5C23.6589 10.5012 24.5463 10.1668 25.2357 9.55967C25.3086 9.49156 25.3629 9.40601 25.3935 9.31109C25.4241 9.21617 25.4301 9.11501 25.4107 9.01717L24.5871 4.08333C24.5595 3.92034 24.4752 3.77236 24.349 3.66559C24.2228 3.55883 24.0629 3.50017 23.8976 3.5V3.5Z" stroke="#87329E" stroke-width="1.5"/>
<path d="M19.2402 3.5L19.8236 9.33333C19.8236 9.33333 18.6569 10.5 16.9069 10.5C15.1569 10.5 13.9902 9.33333 13.9902 9.33333V3.5H19.2402Z" stroke="#87329E" stroke-width="1.5"/>
<path d="M13.9915 3.5V9.33333C13.9915 9.33333 12.8249 10.5 11.0749 10.5C9.32487 10.5 8.1582 9.33333 8.1582 9.33333L8.74154 3.5H13.9915Z" stroke="#87329E" stroke-width="1.5"/>
<path d="M8.74091 3.5H4.08474C3.91907 3.49994 3.75875 3.55864 3.63228 3.66566C3.50582 3.77269 3.42141 3.9211 3.39408 4.0845L2.57158 9.01833C2.55235 9.11618 2.55833 9.21731 2.58894 9.31221C2.61956 9.40711 2.6738 9.49267 2.74658 9.56083C3.12924 9.89917 3.98441 10.5012 5.24091 10.5012C6.99091 10.5012 8.15758 9.3345 8.15758 9.3345L8.74091 3.50117V3.5Z" stroke="#87329E" stroke-width="1.5"/>
<path d="M3.5 10.5V22.1667C3.5 22.7855 3.74583 23.379 4.18342 23.8166C4.621 24.2542 5.21449 24.5 5.83333 24.5H22.1667C22.7855 24.5 23.379 24.2542 23.8166 23.8166C24.2542 23.379 24.5 22.7855 24.5 22.1667V10.5" stroke="#87329E" stroke-width="1.5"/>
<path d="M17.3047 24.5003V17.5003C17.3047 16.8815 17.0589 16.288 16.6213 15.8504C16.1837 15.4128 15.5902 15.167 14.9714 15.167H12.638C12.0192 15.167 11.4257 15.4128 10.9881 15.8504C10.5505 16.288 10.3047 16.8815 10.3047 17.5003V24.5003" stroke="#87329E" stroke-width="1.5" stroke-miterlimit="16"/>
</svg>
