<svg width="29" height="21" viewBox="0 0 29 21" fill="none" xmlns="http://www.w3.org/2000/svg">
<path d="M5.21875 0.1875C3.85123 0.1875 2.53972 0.730746 1.57273 1.69773C0.605746 2.66472 0.0625 3.97623 0.0625 5.34375V6.375H28.9375V5.34375C28.9375 3.97623 28.3943 2.66472 27.4273 1.69773C26.4603 0.730746 25.1488 0.1875 23.7812 0.1875H5.21875ZM28.9375 8.4375H0.0625V15.6562C0.0625 17.0238 0.605746 18.3353 1.57273 19.3023C2.53972 20.2693 3.85123 20.8125 5.21875 20.8125H23.7812C25.1488 20.8125 26.4603 20.2693 27.4273 19.3023C28.3943 18.3353 28.9375 17.0238 28.9375 15.6562V8.4375ZM19.6562 14.625H23.7812C24.0548 14.625 24.3171 14.7336 24.5105 14.927C24.7039 15.1204 24.8125 15.3827 24.8125 15.6562C24.8125 15.9298 24.7039 16.1921 24.5105 16.3855C24.3171 16.5789 24.0548 16.6875 23.7812 16.6875H19.6562C19.3827 16.6875 19.1204 16.5789 18.927 16.3855C18.7336 16.1921 18.625 15.9298 18.625 15.6562C18.625 15.3827 18.7336 15.1204 18.927 14.927C19.1204 14.7336 19.3827 14.625 19.6562 14.625Z" fill="white"/>
</svg>
