<svg width="17" height="15" viewBox="0 0 17 15" fill="none" xmlns="http://www.w3.org/2000/svg">
<path fill-rule="evenodd" clip-rule="evenodd" d="M13.0677 4.63559H16.4173C16.4173 1.94614 14.8058 0.375 12.0755 0.375H4.92584C2.19547 0.375 0.583984 1.94614 0.583984 4.60129V10.3987C0.583984 13.0539 2.19547 14.625 4.92584 14.625H12.0755C14.8058 14.625 16.4173 13.0539 16.4173 10.3987V10.1517H13.0677C11.5131 10.1517 10.2529 8.92304 10.2529 7.40738C10.2529 5.89172 11.5131 4.66304 13.0677 4.66304V4.63559ZM13.0677 5.81566H15.8262C16.1527 5.81566 16.4173 6.07368 16.4173 6.39197V8.39534C16.4135 8.71208 16.1511 8.96795 15.8262 8.97165H13.131C12.344 8.98198 11.6558 8.45663 11.4773 7.70926C11.3879 7.24531 11.5134 6.76657 11.8202 6.40134C12.1269 6.0361 12.5835 5.82173 13.0677 5.81566ZM13.1873 7.92194H13.4477C13.7819 7.92194 14.0529 7.65778 14.0529 7.33191C14.0529 7.00604 13.7819 6.74188 13.4477 6.74188H13.1873C13.0275 6.74004 12.8735 6.80067 12.7598 6.91024C12.6461 7.0198 12.5821 7.16919 12.5821 7.32505C12.5821 7.65204 12.8519 7.91818 13.1873 7.92194ZM4.33473 4.63559H8.80324C9.13748 4.63559 9.40843 4.37142 9.40843 4.04556C9.40843 3.71969 9.13748 3.45552 8.80324 3.45552H4.33473C4.00322 3.4555 3.73339 3.71551 3.72954 4.0387C3.72952 4.36569 3.99936 4.63183 4.33473 4.63559Z" fill="#87329E"/>
</svg>
